# xmcd CD database file
#
# Track frame offsets:
#	150
#	36781
#	81817
#	117679
#	171910
#
# Disc length: 2853 seconds
#
# Revision: 0
# Processed by: cddbd v1.5.1PL0 Copyright (c) Steve Scherf et al.
# Submitted via: CDex 1.51
#
DISCID=3d0b2305
DTITLE=Salt  - 86,90,91
DYEAR=1900
DGENRE=Jazz
TTITLE0=844
TTITLE1=Kai-Toh-Sei - Aedegemn
TTITLE2=Salami
TTITLE3=Tochi
TTITLE4=Kappa
EXTD=
EXTT0=
EXTT1=
EXTT2=
EXTT3=
EXTT4=
PLAYORDER=
